<?xml version="1.0" standalone="no"?>
<!DOCTYPE svg PUBLIC "-//W3C//DTD SVG 20010904//EN"
 "http://www.w3.org/TR/2001/REC-SVG-20010904/DTD/svg10.dtd">
<svg version="1.0" xmlns="http://www.w3.org/2000/svg"
 width="500.000000pt" height="500.000000pt" viewBox="0 0 500.000000 500.000000"
 preserveAspectRatio="xMidYMid meet">

<g transform="translate(0.000000,500.000000) scale(0.100000,-0.100000)"
fill="#000000" stroke="none">
<path d="M0 2500 l0 -2500 2500 0 2500 0 0 2500 0 2500 -2500 0 -2500 0 0
-2500z m2556 -329 c54 -24 57 -31 33 -69 -19 -32 -20 -32 -49 -17 -69 36 -162
8 -193 -58 -32 -66 -18 -135 37 -186 33 -31 115 -41 150 -17 34 22 38 21 59
-15 19 -35 17 -44 -21 -63 -71 -35 -172 -25 -240 24 -25 18 -50 50 -67 84 -63
129 -5 273 131 321 54 19 111 18 160 -4z m-1208 -28 l-3 -38 -62 -3 -63 -3 -2
-182 -3 -182 -42 -3 -43 -3 0 185 0 185 -62 3 -63 3 -3 38 -3 37 176 0 176 0
-3 -37z m332 22 c86 -45 105 -155 38 -227 l-30 -32 41 -83 c22 -46 41 -85 41
-88 0 -3 -22 -5 -50 -5 l-50 0 -40 80 -40 80 -45 0 -45 0 0 -80 0 -80 -45 0
-45 0 0 225 0 225 120 0 c87 0 129 -4 150 -15z m442 -210 c48 -121 88 -221 88
-222 0 -2 -20 -3 -45 -3 -43 0 -46 2 -61 40 l-16 40 -94 0 -94 0 -16 -40 c-15
-38 -18 -40 -60 -40 -24 0 -44 2 -44 5 0 7 160 406 172 428 7 13 19 17 46 15
l36 -3 88 -220z m658 129 l5 -91 83 94 83 93 49 0 c28 0 50 -2 50 -5 0 -2 -36
-45 -80 -95 l-79 -90 94 -123 c52 -67 95 -125 95 -129 0 -5 -24 -8 -53 -8
l-53 0 -64 87 c-36 47 -68 91 -73 97 -5 7 -15 0 -30 -19 -16 -21 -23 -48 -27
-95 l-5 -65 -42 -3 -43 -3 0 226 0 226 43 -3 42 -3 5 -91z m670 56 l0 -40
-115 0 -115 0 0 -60 0 -60 90 0 90 0 0 -40 0 -40 -90 0 -90 0 0 -86 0 -85 -42
3 -43 3 -3 210 c-1 115 0 215 2 222 4 10 44 13 161 13 l155 0 0 -40z m158
-182 l-3 -223 -42 -3 -43 -3 0 225 0 226 45 0 45 0 -2 -222z m402 182 l0 -40
-60 0 -60 0 -2 -182 -3 -183 -42 -3 -43 -3 0 185 0 186 -65 0 -65 0 0 40 0 40
170 0 170 0 0 -40z"/>
<path d="M1500 2035 l0 -65 65 0 c53 0 68 4 85 22 11 12 20 31 20 43 0 12 -9
31 -20 43 -17 18 -32 22 -85 22 l-65 0 0 -65z"/>
<path d="M1968 1994 c-15 -38 -29 -77 -33 -86 -6 -16 0 -18 54 -18 43 0 61 4
61 13 0 7 -13 46 -28 86 l-29 74 -25 -69z"/>
</g>
</svg>
